<svg xmlns="http://www.w3.org/2000/svg" viewBox="0 0 800 245" font-family="Arial,sans-serif" font-size="13">
<defs><marker id="a" viewBox="0 0 10 10" refX="10" refY="5" markerWidth="8" markerHeight="8" orient="auto"><path d="M0,0 L10,5 L0,10Z" fill="#666"/></marker><style>
rect.bx{fill:#e8f4f8;stroke:#4a90d9;stroke-width:1.5;rx:5}rect.i{fill:#d4e8f0;stroke:#4a90d9;stroke-width:1;rx:3}rect.gr{fill:#d4edda;stroke:#5cb85c;stroke-width:1.5;rx:5}rect.or{fill:#fdf0d5;stroke:#f0ad4e;stroke-width:1;rx:3}text.t{fill:#2c6fa0;font-weight:bold;font-size:14px;text-anchor:middle}text.l{fill:#333;text-anchor:middle;font-size:12px}path.e{stroke:#666;stroke-width:1.5;fill:none;marker-end:url(#a)}
</style></defs>

<rect x="24" y="30" width="170" height="185" class="bx"/><text x="109" y="50" class="t">Development</text>
<rect x="34" y="65" width="150" height="28" class="gr"/><text x="109" y="83" class="l">Kotlin 2.1 + Compose</text>
<path d="M109,93 L109,117" class="e"/>
<rect x="34" y="117" width="150" height="28" class="gr"/><text x="109" y="135" class="l">Unit Tests (154)</text>
<path d="M109,145 L109,169" class="e"/>
<rect x="34" y="169" width="150" height="28" class="gr"/><text x="109" y="187" class="l">Lint + Detekt</text>

<rect x="218" y="30" width="170" height="185" class="bx"/><text x="303" y="50" class="t">CI (GitHub Actions)</text>
<rect x="228" y="65" width="150" height="28" class="i"/><text x="303" y="83" class="l">git push to main</text>
<path d="M303,93 L303,117" class="e"/>
<rect x="228" y="117" width="150" height="28" class="i"/><text x="303" y="135" class="l">Build + Tests ✓</text>
<path d="M303,145 L303,169" class="e"/>
<rect x="228" y="169" width="150" height="28" class="i"/><text x="303" y="187" class="l">APK Integrity Check</text>

<rect x="412" y="30" width="170" height="185" class="bx"/><text x="497" y="50" class="t">Release</text>
<rect x="422" y="65" width="150" height="28" class="or"/><text x="497" y="83" class="l">R8 Optimize</text>
<path d="M497,93 L497,117" class="e"/>
<rect x="422" y="117" width="150" height="28" class="or"/><text x="497" y="135" class="l">APK Signing</text>
<path d="M497,145 L497,169" class="e"/>
<rect x="422" y="169" width="150" height="28" class="or"/><text x="497" y="187" class="l">GitHub Release</text>

<rect x="606" y="30" width="170" height="185" class="gr"/><text x="691" y="50" class="t">Distribution</text>
<rect x="616" y="82" width="150" height="28" class="i"/><text x="691" y="100" class="l">GitHub Releases</text>
<path d="M691,110 L691,134" class="e"/>
<rect x="616" y="134" width="150" height="28" class="i"/><text x="691" y="152" class="l">APK (1.8 MB)</text>

<path d="M194,122 L218,122" class="e"/>
<path d="M388,122 L412,122" class="e"/>
<path d="M582,122 L606,122" class="e"/>
</svg>